<mxfile host="app.diagrams.net" modified="2024-05-09T07:59:14.134Z" agent="Mozilla/5.0 (Macintosh; Intel Mac OS X 10_15_7) AppleWebKit/537.36 (KHTML, like Gecko) Chrome/123.0.0.0 Safari/537.36" etag="5VPUSSbpLZ2s_Z7hKPrw" version="24.3.1" type="github">
  <diagram name="Page-1" id="efa7a0a1-bf9b-a30e-e6df-94a7791c09e9">
    <mxGraphModel dx="1434" dy="672" grid="1" gridSize="10" guides="1" tooltips="1" connect="1" arrows="1" fold="1" page="1" pageScale="1" pageWidth="826" pageHeight="1169" background="none" math="0" shadow="0">
      <root>
        <mxCell id="0" />
        <mxCell id="1" parent="0" />
        <mxCell id="BoenK5rsqblQoSDdwrWL-136" style="edgeStyle=orthogonalEdgeStyle;rounded=0;orthogonalLoop=1;jettySize=auto;html=1;exitX=0.5;exitY=1;exitDx=0;exitDy=0;entryX=0.5;entryY=0;entryDx=0;entryDy=0;" edge="1" parent="1" source="BoenK5rsqblQoSDdwrWL-115" target="BoenK5rsqblQoSDdwrWL-117">
          <mxGeometry relative="1" as="geometry" />
        </mxCell>
        <mxCell id="BoenK5rsqblQoSDdwrWL-115" value="suche landing page" style="rounded=0;whiteSpace=wrap;html=1;fillColor=#dae8fc;strokeColor=#6c8ebf;" vertex="1" parent="1">
          <mxGeometry x="150" y="40" width="140" height="60" as="geometry" />
        </mxCell>
        <mxCell id="BoenK5rsqblQoSDdwrWL-137" style="edgeStyle=orthogonalEdgeStyle;rounded=0;orthogonalLoop=1;jettySize=auto;html=1;exitX=0.5;exitY=1;exitDx=0;exitDy=0;entryX=0.5;entryY=0;entryDx=0;entryDy=0;" edge="1" parent="1" source="BoenK5rsqblQoSDdwrWL-117" target="BoenK5rsqblQoSDdwrWL-119">
          <mxGeometry relative="1" as="geometry" />
        </mxCell>
        <mxCell id="BoenK5rsqblQoSDdwrWL-117" value="search-app" style="rounded=0;whiteSpace=wrap;html=1;fillColor=#dae8fc;strokeColor=#6c8ebf;" vertex="1" parent="1">
          <mxGeometry x="150" y="170" width="140" height="60" as="geometry" />
        </mxCell>
        <mxCell id="BoenK5rsqblQoSDdwrWL-138" style="edgeStyle=orthogonalEdgeStyle;rounded=0;orthogonalLoop=1;jettySize=auto;html=1;exitX=0.5;exitY=1;exitDx=0;exitDy=0;entryX=0.5;entryY=0;entryDx=0;entryDy=0;" edge="1" parent="1" source="BoenK5rsqblQoSDdwrWL-119" target="BoenK5rsqblQoSDdwrWL-120">
          <mxGeometry relative="1" as="geometry" />
        </mxCell>
        <mxCell id="BoenK5rsqblQoSDdwrWL-119" value="elastic search" style="rounded=0;whiteSpace=wrap;html=1;fillColor=#dae8fc;strokeColor=#6c8ebf;" vertex="1" parent="1">
          <mxGeometry x="150" y="270" width="140" height="60" as="geometry" />
        </mxCell>
        <mxCell id="BoenK5rsqblQoSDdwrWL-120" value="PostgreSQL" style="rounded=0;whiteSpace=wrap;html=1;fillColor=#dae8fc;strokeColor=#6c8ebf;" vertex="1" parent="1">
          <mxGeometry x="150" y="370" width="140" height="60" as="geometry" />
        </mxCell>
      </root>
    </mxGraphModel>
  </diagram>
</mxfile>
